# Blender 4.4.3
# www.blender.org
mtllib Axe.mtl
o Axe_handle
v -0.100000 -0.900000 0.100000
v -0.100000 0.900000 0.100000
v -0.100000 -0.900000 -0.100000
v -0.100000 0.900000 -0.100000
v 0.100000 -0.900000 0.100000
v 0.100000 0.900000 0.100000
v 0.100000 -0.900000 -0.100000
v 0.100000 0.900000 -0.100000
vn -1.0000 -0.0000 -0.0000
vn -0.0000 -0.0000 -1.0000
vn 1.0000 -0.0000 -0.0000
vn -0.0000 -0.0000 1.0000
vn -0.0000 -1.0000 -0.0000
vn -0.0000 1.0000 -0.0000
vt 0.625000 0.000000
vt 0.375000 0.250000
vt 0.375000 0.000000
vt 0.625000 0.250000
vt 0.375000 0.500000
vt 0.625000 0.500000
vt 0.375000 0.750000
vt 0.625000 0.750000
vt 0.375000 1.000000
vt 0.125000 0.750000
vt 0.125000 0.500000
vt 0.875000 0.500000
vt 0.625000 1.000000
vt 0.875000 0.750000
s 0
usemtl マテリアル
f 2/1/1 3/2/1 1/3/1
f 4/4/2 7/5/2 3/2/2
f 8/6/3 5/7/3 7/5/3
f 6/8/4 1/9/4 5/7/4
f 7/5/5 1/10/5 3/11/5
f 4/12/6 6/8/6 8/6/6
f 2/1/1 4/4/1 3/2/1
f 4/4/2 8/6/2 7/5/2
f 8/6/3 6/8/3 5/7/3
f 6/8/4 2/13/4 1/9/4
f 7/5/5 5/7/5 1/10/5
f 4/12/6 2/14/6 6/8/6
o Axe_blade
v -0.118762 0.337257 0.275341
v -0.118762 0.931404 0.275341
v -0.001270 0.337257 -0.542041
v -0.001270 0.931404 -0.542041
v 0.118762 0.337257 0.275341
v 0.118762 0.931404 0.275341
v 0.001270 0.337257 -0.542041
v 0.001270 0.931404 -0.542041
v -0.063515 0.510834 0.070996
v 0.063515 0.757827 0.070996
v -0.063515 0.757827 0.070996
v 0.063515 0.510834 0.070996
vn -0.0000 0.9622 0.2724
vn -0.0000 -0.0000 -1.0000
vn 0.9653 -0.0000 -0.2610
vn -0.0000 -0.0000 1.0000
vn -0.0000 -0.7622 -0.6474
vn -0.0000 0.7622 -0.6474
vn -0.0000 -0.9622 0.2724
vn 0.9949 -0.0000 -0.1010
vn -0.9653 -0.0000 -0.2610
vn -0.9949 -0.0000 -0.1010
vt 0.875000 0.687500
vt 0.625000 0.500000
vt 0.875000 0.500000
vt 0.625000 0.250000
vt 0.375000 0.500000
vt 0.375000 0.250000
vt 0.625000 0.687500
vt 0.375000 0.750000
vt 0.375000 0.687500
vt 0.625000 0.750000
vt 0.375000 1.000000
vt 0.125000 0.750000
vt 0.125000 0.687500
vt 0.125000 0.500000
vt 0.625000 0.000000
vt 0.375000 0.062500
vt 0.375000 0.000000
vt 0.625000 0.062500
vt 0.625000 1.000000
vt 0.875000 0.750000
s 0
usemtl マテリアル.001
f 19/15/7 16/16/7 12/17/7
f 12/18/8 15/19/8 11/20/8
f 18/21/9 13/22/9 20/23/9
f 14/24/10 9/25/10 13/22/10
f 20/23/11 9/26/11 17/27/11
f 19/15/12 14/24/12 18/21/12
f 20/23/13 11/28/13 15/19/13
f 18/21/14 15/19/14 16/16/14
f 10/29/15 17/30/15 9/31/15
f 19/32/16 11/20/16 17/30/16
f 19/15/7 18/21/7 16/16/7
f 12/18/8 16/16/8 15/19/8
f 18/21/9 14/24/9 13/22/9
f 14/24/10 10/33/10 9/25/10
f 20/23/11 13/22/11 9/26/11
f 19/15/12 10/34/12 14/24/12
f 20/23/13 17/27/13 11/28/13
f 18/21/14 20/23/14 15/19/14
f 10/29/15 19/32/15 17/30/15
f 19/32/16 12/18/16 11/20/16
