{
	"asset":{
		"generator":"Khronos glTF Blender I/O v4.4.56",
		"version":"2.0"
	},
	"scene":0,
	"scenes":[
		{
			"name":"Scene",
			"nodes":[
				34
			]
		}
	],
	"nodes":[
		{
			"name":"mixamorig:HeadTop_End",
			"rotation":[
				1.7763570511584873e-15,
				0,
				0,
				1
			],
			"scale":[
				1,
				0.9999999403953552,
				0.9999999403953552
			],
			"translation":[
				0,
				0.2919567823410034,
				0.04922720789909363
			]
		},
		{
			"children":[
				0
			],
			"name":"mixamorig:Head",
			"rotation":[
				3.145535831805546e-09,
				0,
				0,
				1
			],
			"scale":[
				1,
				0.9999999403953552,
				0.9999999403953552
			],
			"translation":[
				0,
				0.11002105474472046,
				0.018550805747509003
			]
		},
		{
			"children":[
				1
			],
			"name":"mixamorig:Neck",
			"rotation":[
				-0.049760255962610245,
				0,
				0,
				0.9987611770629883
			],
			"scale":[
				1,
				0.9999999403953552,
				0.9999998807907104
			],
			"translation":[
				0,
				0.11976784467697144,
				-9.313225746154785e-10
			]
		},
		{
			"name":"mixamorig:LeftHandIndex4",
			"rotation":[
				-1.4901162970204496e-08,
				-5.587935447692871e-09,
				-3.725290298461914e-09,
				1
			],
			"scale":[
				1,
				0.9999999403953552,
				0.9999999403953552
			],
			"translation":[
				0.00032045459374785423,
				0.002007438335567713,
				-0.0012892074882984161
			]
		},
		{
			"children":[
				3
			],
			"name":"mixamorig:LeftHandIndex3",
			"rotation":[
				9.313225746154785e-09,
				-1.862645149230957e-09,
				3.7252898543727042e-09,
				1
			],
			"scale":[
				1,
				1.0000001192092896,
				1
			],
			"translation":[
				-0.0015685120597481728,
				0.0010828585363924503,
				0.0011217035353183746
			]
		},
		{
			"children":[
				4
			],
			"name":"mixamorig:LeftHandIndex2",
			"rotation":[
				5.234032869338989e-07,
				-3.762543201446533e-07,
				-3.4458935260772705e-07,
				1
			],
			"translation":[
				-3.259629011154175e-09,
				0.0021526310592889786,
				-3.166496753692627e-08
			]
		},
		{
			"children":[
				5
			],
			"name":"mixamorig:LeftHandIndex1",
			"rotation":[
				0.03440729156136513,
				0.0013903423678129911,
				0.040358565747737885,
				0.9985917210578918
			],
			"scale":[
				0.9999999403953552,
				0.9999998807907104,
				0.9999998211860657
			],
			"translation":[
				1.816079020500183e-08,
				0.00709085538983345,
				-5.587935447692871e-09
			]
		},
		{
			"children":[
				6
			],
			"name":"mixamorig:LeftHand",
			"rotation":[
				0.07042547315359116,
				-0.009615846909582615,
				-0.13494211435317993,
				0.9883007407188416
			],
			"scale":[
				1.0000001192092896,
				1,
				1
			],
			"translation":[
				-4.516914486885071e-08,
				0.2687895894050598,
				-1.862645149230957e-09
			]
		},
		{
			"children":[
				7
			],
			"name":"mixamorig:LeftForeArm",
			"rotation":[
				0.669979989528656,
				0.4182654917240143,
				0.5202723741531372,
				0.3248036801815033
			],
			"scale":[
				1.0000001192092896,
				1.0000001192092896,
				1.0000001192092896
			],
			"translation":[
				-8.381903171539307e-09,
				0.05907047539949417,
				-6.193295121192932e-08
			]
		},
		{
			"children":[
				8
			],
			"name":"mixamorig:LeftArm",
			"rotation":[
				-0.89835524559021,
				0.05351046472787857,
				0.1142478659749031,
				0.4207634925842285
			],
			"scale":[
				0.9999998807907104,
				0.9999997019767761,
				0.9999995231628418
			],
			"translation":[
				1.1641532182693481e-09,
				0.16983656585216522,
				-9.505311027169228e-08
			]
		},
		{
			"children":[
				9
			],
			"name":"mixamorig:LeftShoulder",
			"rotation":[
				0.5501988530158997,
				0.44690439105033875,
				-0.5422607064247131,
				0.4511219263076782
			],
			"scale":[
				0.9999999403953552,
				0.9999998807907104,
				0.9999998807907104
			],
			"translation":[
				0.0839257761836052,
				0.100309357047081,
				0.001298693474382162
			]
		},
		{
			"name":"mixamorig:RightHandIndex4",
			"rotation":[
				9.313226634333205e-09,
				-2.7939681679356454e-09,
				2.2351743567128324e-08,
				1
			],
			"scale":[
				1,
				0.9999999403953552,
				0.9999999403953552
			],
			"translation":[
				-0.0015494711697101593,
				-0.002069301437586546,
				-0.001650179852731526
			]
		},
		{
			"children":[
				11
			],
			"name":"mixamorig:RightHandIndex3",
			"rotation":[
				9.313227522511625e-09,
				6.519258910486769e-09,
				1.862645371275562e-09,
				1
			],
			"scale":[
				1,
				0.9999999403953552,
				0.9999999403953552
			],
			"translation":[
				0.0018326174467802048,
				-0.003319202456623316,
				-0.0017045463901013136
			]
		},
		{
			"children":[
				12
			],
			"name":"mixamorig:RightHandIndex2",
			"rotation":[
				5.587935802964239e-08,
				3.5390257835388184e-08,
				4.440892098500626e-16,
				1
			],
			"scale":[
				1,
				0.9999999403953552,
				1
			],
			"translation":[
				-1.862645149230957e-08,
				0.0023994827643036842,
				-8.224742487072945e-08
			]
		},
		{
			"children":[
				13
			],
			"name":"mixamorig:RightHandIndex1",
			"rotation":[
				0.6366915702819824,
				-0.28455570340156555,
				0.6624627709388733,
				0.2734868824481964
			],
			"translation":[
				-2.1420419216156006e-08,
				0.007968451827764511,
				-9.313225746154785e-09
			]
		},
		{
			"children":[
				14
			],
			"name":"mixamorig:RightHand",
			"rotation":[
				0.08328131586313248,
				0.0015813116915524006,
				0.01892104744911194,
				0.9963452219963074
			],
			"scale":[
				1,
				0.9999998807907104,
				1
			],
			"translation":[
				1.3271346688270569e-08,
				0.26865896582603455,
				-9.313225746154785e-09
			]
		},
		{
			"children":[
				15
			],
			"name":"mixamorig:RightForeArm",
			"rotation":[
				0.6693649888038635,
				-0.41892582178115845,
				-0.5200948119163513,
				0.32550427317619324
			],
			"scale":[
				1.0000001192092896,
				1.0000003576278687,
				1.0000003576278687
			],
			"translation":[
				-8.381903171539307e-09,
				0.05836540833115578,
				-6.05359673500061e-09
			]
		},
		{
			"children":[
				16
			],
			"name":"mixamorig:RightArm",
			"rotation":[
				-0.9020190238952637,
				-0.04270079359412193,
				-0.09178141504526138,
				0.4196600615978241
			],
			"scale":[
				0.9999998211860657,
				0.9999999403953552,
				0.9999997615814209
			],
			"translation":[
				1.210719347000122e-08,
				0.16983655095100403,
				-2.1944288164377213e-08
			]
		},
		{
			"children":[
				17
			],
			"name":"mixamorig:RightShoulder",
			"rotation":[
				0.5539665222167969,
				-0.4438280165195465,
				0.5377129912376404,
				0.4549753963947296
			],
			"scale":[
				0.9999998807907104,
				0.9999998807907104,
				0.9999997615814209
			],
			"translation":[
				-0.0839257761836052,
				0.10043694823980331,
				0.002576035913079977
			]
		},
		{
			"children":[
				2,
				10,
				18
			],
			"name":"mixamorig:Spine2",
			"rotation":[
				1.862645326866641e-08,
				0,
				0,
				1
			],
			"scale":[
				1,
				0.9999998807907104,
				0.9999998807907104
			],
			"translation":[
				0,
				0.10646035522222519,
				-2.7939677238464355e-09
			]
		},
		{
			"children":[
				19
			],
			"name":"mixamorig:Spine1",
			"rotation":[
				-3.725290653733282e-08,
				0,
				0,
				1
			],
			"scale":[
				1,
				0.9999998807907104,
				0.9999998807907104
			],
			"translation":[
				0,
				0.0931527316570282,
				3.725290298461914e-09
			]
		},
		{
			"children":[
				20
			],
			"name":"mixamorig:Spine",
			"rotation":[
				0.04976026713848114,
				0,
				0,
				0.9987611770629883
			],
			"scale":[
				1,
				1,
				0.9999998807907104
			],
			"translation":[
				0,
				0.07944981753826141,
				0.007936391979455948
			]
		},
		{
			"name":"mixamorig:LeftToe_End",
			"rotation":[
				-1.0244549741855735e-07,
				-9.872020712009544e-08,
				1.3364480366817588e-07,
				1
			],
			"scale":[
				0.9999999403953552,
				0.9999998807907104,
				0.9999999403953552
			],
			"translation":[
				-3.4924596548080444e-09,
				0.05324810743331909,
				2.3283064365386963e-09
			]
		},
		{
			"children":[
				22
			],
			"name":"mixamorig:LeftToeBase",
			"rotation":[
				0.2369137853384018,
				-0.04705512523651123,
				0.011488933116197586,
				0.9703224897384644
			],
			"scale":[
				1,
				1,
				0.9999999403953552
			],
			"translation":[
				-1.6298145055770874e-09,
				0.11378418654203415,
				1.210719347000122e-08
			]
		},
		{
			"children":[
				23
			],
			"name":"mixamorig:LeftFoot",
			"rotation":[
				0.22840091586112976,
				0.2927496135234833,
				-0.07223119586706161,
				0.9256961345672607
			],
			"scale":[
				0.9999998807907104,
				1,
				0.9999999403953552
			],
			"translation":[
				4.71482053399086e-09,
				0.007799943443387747,
				-4.0512531995773315e-08
			]
		},
		{
			"children":[
				24
			],
			"name":"mixamorig:LeftLeg",
			"rotation":[
				0.3004126250743866,
				-0.5176315903663635,
				0.20048384368419647,
				0.7756390571594238
			],
			"scale":[
				0.9999998807907104,
				0.9999998211860657,
				0.9999998807907104
			],
			"translation":[
				-1.6655576473567635e-08,
				0.061390575021505356,
				-5.5022724154696334e-09
			]
		},
		{
			"children":[
				25
			],
			"name":"mixamorig:LeftUpLeg",
			"rotation":[
				8.892349433153868e-05,
				-0.010973678901791573,
				0.9999070167541504,
				0.008094847202301025
			],
			"scale":[
				1,
				0.9999995827674866,
				1.0000001192092896
			],
			"translation":[
				0.12209346890449524,
				-0.04416212812066078,
				0.009649572893977165
			]
		},
		{
			"name":"mixamorig:RightToe_End",
			"rotation":[
				4.284084553773937e-08,
				2.980232594040899e-08,
				1.2351667066923255e-07,
				1
			],
			"scale":[
				0.9999999403953552,
				0.9999999403953552,
				0.9999999403953552
			],
			"translation":[
				-1.0710209608078003e-08,
				0.052381373941898346,
				1.30385160446167e-08
			]
		},
		{
			"children":[
				27
			],
			"name":"mixamorig:RightToeBase",
			"rotation":[
				0.2355201095342636,
				0.22873476147651672,
				-0.057137735188007355,
				0.9428393244743347
			],
			"scale":[
				0.9999998807907104,
				0.9999999403953552,
				1
			],
			"translation":[
				1.6530975699424744e-08,
				0.11194608360528946,
				-9.546056389808655e-09
			]
		},
		{
			"children":[
				28
			],
			"name":"mixamorig:RightFoot",
			"rotation":[
				0.3262506127357483,
				0.6256213188171387,
				-0.32381972670555115,
				0.6303167939186096
			],
			"scale":[
				1,
				0.9999998807907104,
				1
			],
			"translation":[
				4.48198989033699e-09,
				0.007939415983855724,
				-1.1175870895385742e-08
			]
		},
		{
			"children":[
				29
			],
			"name":"mixamorig:RightLeg",
			"rotation":[
				-0.3146483600139618,
				-0.4855503439903259,
				-0.1927764117717743,
				0.7925115823745728
			],
			"scale":[
				1,
				1,
				0.9999999403953552
			],
			"translation":[
				5.3983058023732156e-09,
				0.06138065829873085,
				-1.871201860126348e-09
			]
		},
		{
			"children":[
				30
			],
			"name":"mixamorig:RightUpLeg",
			"rotation":[
				-5.0972103053936735e-05,
				-0.006286419928073883,
				-0.9999474883079529,
				0.008096485398709774
			],
			"scale":[
				1,
				1.0000001192092896,
				1
			],
			"translation":[
				-0.12209346890449524,
				-0.04416212812066078,
				0.008683210238814354
			]
		},
		{
			"children":[
				21,
				26,
				31
			],
			"name":"mixamorig:Hips",
			"rotation":[
				-0.7071067690849304,
				0,
				0,
				0.7071067690849304
			],
			"translation":[
				0,
				-0.03511996194720268,
				-0.16508108377456665
			]
		},
		{
			"mesh":0,
			"name":"tripo_node_1b624923-7277-40fe-9aa8-7eb2f7a760df",
			"skin":0
		},
		{
			"children":[
				33,
				32
			],
			"name":"Armature",
			"rotation":[
				0.7071068286895752,
				0,
				0,
				0.7071068286895752
			],
			"scale":[
				0.009999999776482582,
				0.009999999776482582,
				0.009999999776482582
			]
		}
	],
	"animations":[
		{
			"channels":[
				{
					"sampler":0,
					"target":{
						"node":32,
						"path":"translation"
					}
				},
				{
					"sampler":1,
					"target":{
						"node":32,
						"path":"rotation"
					}
				},
				{
					"sampler":2,
					"target":{
						"node":32,
						"path":"scale"
					}
				},
				{
					"sampler":3,
					"target":{
						"node":21,
						"path":"translation"
					}
				},
				{
					"sampler":4,
					"target":{
						"node":21,
						"path":"rotation"
					}
				},
				{
					"sampler":5,
					"target":{
						"node":21,
						"path":"scale"
					}
				},
				{
					"sampler":6,
					"target":{
						"node":20,
						"path":"translation"
					}
				},
				{
					"sampler":7,
					"target":{
						"node":20,
						"path":"rotation"
					}
				},
				{
					"sampler":8,
					"target":{
						"node":20,
						"path":"scale"
					}
				},
				{
					"sampler":9,
					"target":{
						"node":19,
						"path":"translation"
					}
				},
				{
					"sampler":10,
					"target":{
						"node":19,
						"path":"rotation"
					}
				},
				{
					"sampler":11,
					"target":{
						"node":19,
						"path":"scale"
					}
				},
				{
					"sampler":12,
					"target":{
						"node":2,
						"path":"translation"
					}
				},
				{
					"sampler":13,
					"target":{
						"node":2,
						"path":"rotation"
					}
				},
				{
					"sampler":14,
					"target":{
						"node":2,
						"path":"scale"
					}
				},
				{
					"sampler":15,
					"target":{
						"node":1,
						"path":"translation"
					}
				},
				{
					"sampler":16,
					"target":{
						"node":1,
						"path":"rotation"
					}
				},
				{
					"sampler":17,
					"target":{
						"node":1,
						"path":"scale"
					}
				},
				{
					"sampler":18,
					"target":{
						"node":0,
						"path":"translation"
					}
				},
				{
					"sampler":19,
					"target":{
						"node":0,
						"path":"rotation"
					}
				},
				{
					"sampler":20,
					"target":{
						"node":0,
						"path":"scale"
					}
				},
				{
					"sampler":21,
					"target":{
						"node":10,
						"path":"translation"
					}
				},
				{
					"sampler":22,
					"target":{
						"node":10,
						"path":"rotation"
					}
				},
				{
					"sampler":23,
					"target":{
						"node":10,
						"path":"scale"
					}
				},
				{
					"sampler":24,
					"target":{
						"node":9,
						"path":"translation"
					}
				},
				{
					"sampler":25,
					"target":{
						"node":9,
						"path":"rotation"
					}
				},
				{
					"sampler":26,
					"target":{
						"node":9,
						"path":"scale"
					}
				},
				{
					"sampler":27,
					"target":{
						"node":8,
						"path":"translation"
					}
				},
				{
					"sampler":28,
					"target":{
						"node":8,
						"path":"rotation"
					}
				},
				{
					"sampler":29,
					"target":{
						"node":8,
						"path":"scale"
					}
				},
				{
					"sampler":30,
					"target":{
						"node":7,
						"path":"translation"
					}
				},
				{
					"sampler":31,
					"target":{
						"node":7,
						"path":"rotation"
					}
				},
				{
					"sampler":32,
					"target":{
						"node":7,
						"path":"scale"
					}
				},
				{
					"sampler":33,
					"target":{
						"node":6,
						"path":"translation"
					}
				},
				{
					"sampler":34,
					"target":{
						"node":6,
						"path":"rotation"
					}
				},
				{
					"sampler":35,
					"target":{
						"node":6,
						"path":"scale"
					}
				},
				{
					"sampler":36,
					"target":{
						"node":5,
						"path":"translation"
					}
				},
				{
					"sampler":37,
					"target":{
						"node":5,
						"path":"rotation"
					}
				},
				{
					"sampler":38,
					"target":{
						"node":5,
						"path":"scale"
					}
				},
				{
					"sampler":39,
					"target":{
						"node":4,
						"path":"translation"
					}
				},
				{
					"sampler":40,
					"target":{
						"node":4,
						"path":"rotation"
					}
				},
				{
					"sampler":41,
					"target":{
						"node":4,
						"path":"scale"
					}
				},
				{
					"sampler":42,
					"target":{
						"node":3,
						"path":"translation"
					}
				},
				{
					"sampler":43,
					"target":{
						"node":3,
						"path":"rotation"
					}
				},
				{
					"sampler":44,
					"target":{
						"node":3,
						"path":"scale"
					}
				},
				{
					"sampler":45,
					"target":{
						"node":18,
						"path":"translation"
					}
				},
				{
					"sampler":46,
					"target":{
						"node":18,
						"path":"rotation"
					}
				},
				{
					"sampler":47,
					"target":{
						"node":18,
						"path":"scale"
					}
				},
				{
					"sampler":48,
					"target":{
						"node":17,
						"path":"translation"
					}
				},
				{
					"sampler":49,
					"target":{
						"node":17,
						"path":"rotation"
					}
				},
				{
					"sampler":50,
					"target":{
						"node":17,
						"path":"scale"
					}
				},
				{
					"sampler":51,
					"target":{
						"node":16,
						"path":"translation"
					}
				},
				{
					"sampler":52,
					"target":{
						"node":16,
						"path":"rotation"
					}
				},
				{
					"sampler":53,
					"target":{
						"node":16,
						"path":"scale"
					}
				},
				{
					"sampler":54,
					"target":{
						"node":15,
						"path":"translation"
					}
				},
				{
					"sampler":55,
					"target":{
						"node":15,
						"path":"rotation"
					}
				},
				{
					"sampler":56,
					"target":{
						"node":15,
						"path":"scale"
					}
				},
				{
					"sampler":57,
					"target":{
						"node":14,
						"path":"translation"
					}
				},
				{
					"sampler":58,
					"target":{
						"node":14,
						"path":"rotation"
					}
				},
				{
					"sampler":59,
					"target":{
						"node":14,
						"path":"scale"
					}
				},
				{
					"sampler":60,
					"target":{
						"node":13,
						"path":"translation"
					}
				},
				{
					"sampler":61,
					"target":{
						"node":13,
						"path":"rotation"
					}
				},
				{
					"sampler":62,
					"target":{
						"node":13,
						"path":"scale"
					}
				},
				{
					"sampler":63,
					"target":{
						"node":12,
						"path":"translation"
					}
				},
				{
					"sampler":64,
					"target":{
						"node":12,
						"path":"rotation"
					}
				},
				{
					"sampler":65,
					"target":{
						"node":12,
						"path":"scale"
					}
				},
				{
					"sampler":66,
					"target":{
						"node":11,
						"path":"translation"
					}
				},
				{
					"sampler":67,
					"target":{
						"node":11,
						"path":"rotation"
					}
				},
				{
					"sampler":68,
					"target":{
						"node":11,
						"path":"scale"
					}
				},
				{
					"sampler":69,
					"target":{
						"node":26,
						"path":"translation"
					}
				},
				{
					"sampler":70,
					"target":{
						"node":26,
						"path":"rotation"
					}
				},
				{
					"sampler":71,
					"target":{
						"node":26,
						"path":"scale"
					}
				},
				{
					"sampler":72,
					"target":{
						"node":25,
						"path":"translation"
					}
				},
				{
					"sampler":73,
					"target":{
						"node":25,
						"path":"rotation"
					}
				},
				{
					"sampler":74,
					"target":{
						"node":25,
						"path":"scale"
					}
				},
				{
					"sampler":75,
					"target":{
						"node":24,
						"path":"translation"
					}
				},
				{
					"sampler":76,
					"target":{
						"node":24,
						"path":"rotation"
					}
				},
				{
					"sampler":77,
					"target":{
						"node":24,
						"path":"scale"
					}
				},
				{
					"sampler":78,
					"target":{
						"node":23,
						"path":"translation"
					}
				},
				{
					"sampler":79,
					"target":{
						"node":23,
						"path":"rotation"
					}
				},
				{
					"sampler":80,
					"target":{
						"node":23,
						"path":"scale"
					}
				},
				{
					"sampler":81,
					"target":{
						"node":22,
						"path":"translation"
					}
				},
				{
					"sampler":82,
					"target":{
						"node":22,
						"path":"rotation"
					}
				},
				{
					"sampler":83,
					"target":{
						"node":22,
						"path":"scale"
					}
				},
				{
					"sampler":84,
					"target":{
						"node":31,
						"path":"translation"
					}
				},
				{
					"sampler":85,
					"target":{
						"node":31,
						"path":"rotation"
					}
				},
				{
					"sampler":86,
					"target":{
						"node":31,
						"path":"scale"
					}
				},
				{
					"sampler":87,
					"target":{
						"node":30,
						"path":"translation"
					}
				},
				{
					"sampler":88,
					"target":{
						"node":30,
						"path":"rotation"
					}
				},
				{
					"sampler":89,
					"target":{
						"node":30,
						"path":"scale"
					}
				},
				{
					"sampler":90,
					"target":{
						"node":29,
						"path":"translation"
					}
				},
				{
					"sampler":91,
					"target":{
						"node":29,
						"path":"rotation"
					}
				},
				{
					"sampler":92,
					"target":{
						"node":29,
						"path":"scale"
					}
				},
				{
					"sampler":93,
					"target":{
						"node":28,
						"path":"translation"
					}
				},
				{
					"sampler":94,
					"target":{
						"node":28,
						"path":"rotation"
					}
				},
				{
					"sampler":95,
					"target":{
						"node":28,
						"path":"scale"
					}
				},
				{
					"sampler":96,
					"target":{
						"node":27,
						"path":"translation"
					}
				},
				{
					"sampler":97,
					"target":{
						"node":27,
						"path":"rotation"
					}
				},
				{
					"sampler":98,
					"target":{
						"node":27,
						"path":"scale"
					}
				}
			],
			"name":"Armature|mixamo.com|Layer0",
			"samplers":[
				{
					"input":7,
					"interpolation":"LINEAR",
					"output":8
				},
				{
					"input":7,
					"interpolation":"LINEAR",
					"output":9
				},
				{
					"input":10,
					"interpolation":"STEP",
					"output":11
				},
				{
					"input":10,
					"interpolation":"LINEAR",
					"output":12
				},
				{
					"input":7,
					"interpolation":"LINEAR",
					"output":13
				},
				{
					"input":10,
					"interpolation":"STEP",
					"output":14
				},
				{
					"input":10,
					"interpolation":"LINEAR",
					"output":15
				},
				{
					"input":7,
					"interpolation":"LINEAR",
					"output":16
				},
				{
					"input":10,
					"interpolation":"STEP",
					"output":17
				},
				{
					"input":10,
					"interpolation":"LINEAR",
					"output":18
				},
				{
					"input":7,
					"interpolation":"LINEAR",
					"output":19
				},
				{
					"input":10,
					"interpolation":"STEP",
					"output":20
				},
				{
					"input":10,
					"interpolation":"LINEAR",
					"output":21
				},
				{
					"input":7,
					"interpolation":"LINEAR",
					"output":22
				},
				{
					"input":10,
					"interpolation":"STEP",
					"output":23
				},
				{
					"input":10,
					"interpolation":"LINEAR",
					"output":24
				},
				{
					"input":7,
					"interpolation":"LINEAR",
					"output":25
				},
				{
					"input":10,
					"interpolation":"STEP",
					"output":26
				},
				{
					"input":10,
					"interpolation":"STEP",
					"output":27
				},
				{
					"input":10,
					"interpolation":"STEP",
					"output":28
				},
				{
					"input":10,
					"interpolation":"STEP",
					"output":29
				},
				{
					"input":10,
					"interpolation":"LINEAR",
					"output":30
				},
				{
					"input":7,
					"interpolation":"LINEAR",
					"output":31
				},
				{
					"input":10,
					"interpolation":"STEP",
					"output":32
				},
				{
					"input":10,
					"interpolation":"LINEAR",
					"output":33
				},
				{
					"input":7,
					"interpolation":"LINEAR",
					"output":34
				},
				{
					"input":10,
					"interpolation":"LINEAR",
					"output":35
				},
				{
					"input":10,
					"interpolation":"LINEAR",
					"output":36
				},
				{
					"input":7,
					"interpolation":"LINEAR",
					"output":37
				},
				{
					"input":10,
					"interpolation":"LINEAR",
					"output":38
				},
				{
					"input":10,
					"interpolation":"LINEAR",
					"output":39
				},
				{
					"input":7,
					"interpolation":"LINEAR",
					"output":40
				},
				{
					"input":10,
					"interpolation":"STEP",
					"output":41
				},
				{
					"input":10,
					"interpolation":"LINEAR",
					"output":42
				},
				{
					"input":7,
					"interpolation":"LINEAR",
					"output":43
				},
				{
					"input":10,
					"interpolation":"STEP",
					"output":44
				},
				{
					"input":10,
					"interpolation":"LINEAR",
					"output":45
				},
				{
					"input":7,
					"interpolation":"LINEAR",
					"output":46
				},
				{
					"input":10,
					"interpolation":"STEP",
					"output":47
				},
				{
					"input":10,
					"interpolation":"LINEAR",
					"output":48
				},
				{
					"input":7,
					"interpolation":"LINEAR",
					"output":49
				},
				{
					"input":10,
					"interpolation":"LINEAR",
					"output":50
				},
				{
					"input":10,
					"interpolation":"STEP",
					"output":51
				},
				{
					"input":10,
					"interpolation":"STEP",
					"output":52
				},
				{
					"input":10,
					"interpolation":"STEP",
					"output":53
				},
				{
					"input":10,
					"interpolation":"LINEAR",
					"output":54
				},
				{
					"input":7,
					"interpolation":"LINEAR",
					"output":55
				},
				{
					"input":10,
					"interpolation":"STEP",
					"output":56
				},
				{
					"input":10,
					"interpolation":"LINEAR",
					"output":57
				},
				{
					"input":7,
					"interpolation":"LINEAR",
					"output":58
				},
				{
					"input":10,
					"interpolation":"LINEAR",
					"output":59
				},
				{
					"input":10,
					"interpolation":"LINEAR",
					"output":60
				},
				{
					"input":7,
					"interpolation":"LINEAR",
					"output":61
				},
				{
					"input":10,
					"interpolation":"LINEAR",
					"output":62
				},
				{
					"input":10,
					"interpolation":"LINEAR",
					"output":63
				},
				{
					"input":7,
					"interpolation":"LINEAR",
					"output":64
				},
				{
					"input":10,
					"interpolation":"LINEAR",
					"output":65
				},
				{
					"input":10,
					"interpolation":"LINEAR",
					"output":66
				},
				{
					"input":7,
					"interpolation":"LINEAR",
					"output":67
				},
				{
					"input":10,
					"interpolation":"LINEAR",
					"output":68
				},
				{
					"input":10,
					"interpolation":"LINEAR",
					"output":69
				},
				{
					"input":7,
					"interpolation":"LINEAR",
					"output":70
				},
				{
					"input":10,
					"interpolation":"LINEAR",
					"output":71
				},
				{
					"input":10,
					"interpolation":"LINEAR",
					"output":72
				},
				{
					"input":7,
					"interpolation":"LINEAR",
					"output":73
				},
				{
					"input":10,
					"interpolation":"STEP",
					"output":74
				},
				{
					"input":10,
					"interpolation":"STEP",
					"output":75
				},
				{
					"input":10,
					"interpolation":"STEP",
					"output":76
				},
				{
					"input":10,
					"interpolation":"STEP",
					"output":77
				},
				{
					"input":10,
					"interpolation":"LINEAR",
					"output":78
				},
				{
					"input":7,
					"interpolation":"LINEAR",
					"output":79
				},
				{
					"input":10,
					"interpolation":"STEP",
					"output":80
				},
				{
					"input":10,
					"interpolation":"LINEAR",
					"output":81
				},
				{
					"input":7,
					"interpolation":"LINEAR",
					"output":82
				},
				{
					"input":10,
					"interpolation":"STEP",
					"output":83
				},
				{
					"input":10,
					"interpolation":"LINEAR",
					"output":84
				},
				{
					"input":7,
					"interpolation":"LINEAR",
					"output":85
				},
				{
					"input":10,
					"interpolation":"LINEAR",
					"output":86
				},
				{
					"input":10,
					"interpolation":"LINEAR",
					"output":87
				},
				{
					"input":7,
					"interpolation":"LINEAR",
					"output":88
				},
				{
					"input":10,
					"interpolation":"LINEAR",
					"output":89
				},
				{
					"input":10,
					"interpolation":"STEP",
					"output":90
				},
				{
					"input":10,
					"interpolation":"STEP",
					"output":91
				},
				{
					"input":10,
					"interpolation":"STEP",
					"output":92
				},
				{
					"input":10,
					"interpolation":"LINEAR",
					"output":93
				},
				{
					"input":7,
					"interpolation":"LINEAR",
					"output":94
				},
				{
					"input":10,
					"interpolation":"STEP",
					"output":95
				},
				{
					"input":10,
					"interpolation":"LINEAR",
					"output":96
				},
				{
					"input":7,
					"interpolation":"LINEAR",
					"output":97
				},
				{
					"input":10,
					"interpolation":"LINEAR",
					"output":98
				},
				{
					"input":10,
					"interpolation":"LINEAR",
					"output":99
				},
				{
					"input":7,
					"interpolation":"LINEAR",
					"output":100
				},
				{
					"input":10,
					"interpolation":"STEP",
					"output":101
				},
				{
					"input":10,
					"interpolation":"LINEAR",
					"output":102
				},
				{
					"input":7,
					"interpolation":"LINEAR",
					"output":103
				},
				{
					"input":10,
					"interpolation":"LINEAR",
					"output":104
				},
				{
					"input":10,
					"interpolation":"STEP",
					"output":105
				},
				{
					"input":10,
					"interpolation":"STEP",
					"output":106
				},
				{
					"input":10,
					"interpolation":"STEP",
					"output":107
				}
			]
		},
		{
			"channels":[
				{
					"sampler":0,
					"target":{
						"node":32,
						"path":"translation"
					}
				},
				{
					"sampler":1,
					"target":{
						"node":32,
						"path":"rotation"
					}
				},
				{
					"sampler":2,
					"target":{
						"node":32,
						"path":"scale"
					}
				},
				{
					"sampler":3,
					"target":{
						"node":21,
						"path":"translation"
					}
				},
				{
					"sampler":4,
					"target":{
						"node":21,
						"path":"rotation"
					}
				},
				{
					"sampler":5,
					"target":{
						"node":21,
						"path":"scale"
					}
				},
				{
					"sampler":6,
					"target":{
						"node":20,
						"path":"translation"
					}
				},
				{
					"sampler":7,
					"target":{
						"node":20,
						"path":"rotation"
					}
				},
				{
					"sampler":8,
					"target":{
						"node":20,
						"path":"scale"
					}
				},
				{
					"sampler":9,
					"target":{
						"node":19,
						"path":"translation"
					}
				},
				{
					"sampler":10,
					"target":{
						"node":19,
						"path":"rotation"
					}
				},
				{
					"sampler":11,
					"target":{
						"node":19,
						"path":"scale"
					}
				},
				{
					"sampler":12,
					"target":{
						"node":2,
						"path":"translation"
					}
				},
				{
					"sampler":13,
					"target":{
						"node":2,
						"path":"rotation"
					}
				},
				{
					"sampler":14,
					"target":{
						"node":2,
						"path":"scale"
					}
				},
				{
					"sampler":15,
					"target":{
						"node":1,
						"path":"translation"
					}
				},
				{
					"sampler":16,
					"target":{
						"node":1,
						"path":"rotation"
					}
				},
				{
					"sampler":17,
					"target":{
						"node":1,
						"path":"scale"
					}
				},
				{
					"sampler":18,
					"target":{
						"node":0,
						"path":"translation"
					}
				},
				{
					"sampler":19,
					"target":{
						"node":0,
						"path":"rotation"
					}
				},
				{
					"sampler":20,
					"target":{
						"node":0,
						"path":"scale"
					}
				},
				{
					"sampler":21,
					"target":{
						"node":10,
						"path":"translation"
					}
				},
				{
					"sampler":22,
					"target":{
						"node":10,
						"path":"rotation"
					}
				},
				{
					"sampler":23,
					"target":{
						"node":10,
						"path":"scale"
					}
				},
				{
					"sampler":24,
					"target":{
						"node":9,
						"path":"translation"
					}
				},
				{
					"sampler":25,
					"target":{
						"node":9,
						"path":"rotation"
					}
				},
				{
					"sampler":26,
					"target":{
						"node":9,
						"path":"scale"
					}
				},
				{
					"sampler":27,
					"target":{
						"node":8,
						"path":"translation"
					}
				},
				{
					"sampler":28,
					"target":{
						"node":8,
						"path":"rotation"
					}
				},
				{
					"sampler":29,
					"target":{
						"node":8,
						"path":"scale"
					}
				},
				{
					"sampler":30,
					"target":{
						"node":7,
						"path":"translation"
					}
				},
				{
					"sampler":31,
					"target":{
						"node":7,
						"path":"rotation"
					}
				},
				{
					"sampler":32,
					"target":{
						"node":7,
						"path":"scale"
					}
				},
				{
					"sampler":33,
					"target":{
						"node":6,
						"path":"translation"
					}
				},
				{
					"sampler":34,
					"target":{
						"node":6,
						"path":"rotation"
					}
				},
				{
					"sampler":35,
					"target":{
						"node":6,
						"path":"scale"
					}
				},
				{
					"sampler":36,
					"target":{
						"node":5,
						"path":"translation"
					}
				},
				{
					"sampler":37,
					"target":{
						"node":5,
						"path":"rotation"
					}
				},
				{
					"sampler":38,
					"target":{
						"node":5,
						"path":"scale"
					}
				},
				{
					"sampler":39,
					"target":{
						"node":4,
						"path":"translation"
					}
				},
				{
					"sampler":40,
					"target":{
						"node":4,
						"path":"rotation"
					}
				},
				{
					"sampler":41,
					"target":{
						"node":4,
						"path":"scale"
					}
				},
				{
					"sampler":42,
					"target":{
						"node":3,
						"path":"translation"
					}
				},
				{
					"sampler":43,
					"target":{
						"node":3,
						"path":"rotation"
					}
				},
				{
					"sampler":44,
					"target":{
						"node":3,
						"path":"scale"
					}
				},
				{
					"sampler":45,
					"target":{
						"node":18,
						"path":"translation"
					}
				},
				{
					"sampler":46,
					"target":{
						"node":18,
						"path":"rotation"
					}
				},
				{
					"sampler":47,
					"target":{
						"node":18,
						"path":"scale"
					}
				},
				{
					"sampler":48,
					"target":{
						"node":17,
						"path":"translation"
					}
				},
				{
					"sampler":49,
					"target":{
						"node":17,
						"path":"rotation"
					}
				},
				{
					"sampler":50,
					"target":{
						"node":17,
						"path":"scale"
					}
				},
				{
					"sampler":51,
					"target":{
						"node":16,
						"path":"translation"
					}
				},
				{
					"sampler":52,
					"target":{
						"node":16,
						"path":"rotation"
					}
				},
				{
					"sampler":53,
					"target":{
						"node":16,
						"path":"scale"
					}
				},
				{
					"sampler":54,
					"target":{
						"node":15,
						"path":"translation"
					}
				},
				{
					"sampler":55,
					"target":{
						"node":15,
						"path":"rotation"
					}
				},
				{
					"sampler":56,
					"target":{
						"node":15,
						"path":"scale"
					}
				},
				{
					"sampler":57,
					"target":{
						"node":14,
						"path":"translation"
					}
				},
				{
					"sampler":58,
					"target":{
						"node":14,
						"path":"rotation"
					}
				},
				{
					"sampler":59,
					"target":{
						"node":14,
						"path":"scale"
					}
				},
				{
					"sampler":60,
					"target":{
						"node":13,
						"path":"translation"
					}
				},
				{
					"sampler":61,
					"target":{
						"node":13,
						"path":"rotation"
					}
				},
				{
					"sampler":62,
					"target":{
						"node":13,
						"path":"scale"
					}
				},
				{
					"sampler":63,
					"target":{
						"node":12,
						"path":"translation"
					}
				},
				{
					"sampler":64,
					"target":{
						"node":12,
						"path":"rotation"
					}
				},
				{
					"sampler":65,
					"target":{
						"node":12,
						"path":"scale"
					}
				},
				{
					"sampler":66,
					"target":{
						"node":11,
						"path":"translation"
					}
				},
				{
					"sampler":67,
					"target":{
						"node":11,
						"path":"rotation"
					}
				},
				{
					"sampler":68,
					"target":{
						"node":11,
						"path":"scale"
					}
				},
				{
					"sampler":69,
					"target":{
						"node":26,
						"path":"translation"
					}
				},
				{
					"sampler":70,
					"target":{
						"node":26,
						"path":"rotation"
					}
				},
				{
					"sampler":71,
					"target":{
						"node":26,
						"path":"scale"
					}
				},
				{
					"sampler":72,
					"target":{
						"node":25,
						"path":"translation"
					}
				},
				{
					"sampler":73,
					"target":{
						"node":25,
						"path":"rotation"
					}
				},
				{
					"sampler":74,
					"target":{
						"node":25,
						"path":"scale"
					}
				},
				{
					"sampler":75,
					"target":{
						"node":24,
						"path":"translation"
					}
				},
				{
					"sampler":76,
					"target":{
						"node":24,
						"path":"rotation"
					}
				},
				{
					"sampler":77,
					"target":{
						"node":24,
						"path":"scale"
					}
				},
				{
					"sampler":78,
					"target":{
						"node":23,
						"path":"translation"
					}
				},
				{
					"sampler":79,
					"target":{
						"node":23,
						"path":"rotation"
					}
				},
				{
					"sampler":80,
					"target":{
						"node":23,
						"path":"scale"
					}
				},
				{
					"sampler":81,
					"target":{
						"node":22,
						"path":"translation"
					}
				},
				{
					"sampler":82,
					"target":{
						"node":22,
						"path":"rotation"
					}
				},
				{
					"sampler":83,
					"target":{
						"node":22,
						"path":"scale"
					}
				},
				{
					"sampler":84,
					"target":{
						"node":31,
						"path":"translation"
					}
				},
				{
					"sampler":85,
					"target":{
						"node":31,
						"path":"rotation"
					}
				},
				{
					"sampler":86,
					"target":{
						"node":31,
						"path":"scale"
					}
				},
				{
					"sampler":87,
					"target":{
						"node":30,
						"path":"translation"
					}
				},
				{
					"sampler":88,
					"target":{
						"node":30,
						"path":"rotation"
					}
				},
				{
					"sampler":89,
					"target":{
						"node":30,
						"path":"scale"
					}
				},
				{
					"sampler":90,
					"target":{
						"node":29,
						"path":"translation"
					}
				},
				{
					"sampler":91,
					"target":{
						"node":29,
						"path":"rotation"
					}
				},
				{
					"sampler":92,
					"target":{
						"node":29,
						"path":"scale"
					}
				},
				{
					"sampler":93,
					"target":{
						"node":28,
						"path":"translation"
					}
				},
				{
					"sampler":94,
					"target":{
						"node":28,
						"path":"rotation"
					}
				},
				{
					"sampler":95,
					"target":{
						"node":28,
						"path":"scale"
					}
				},
				{
					"sampler":96,
					"target":{
						"node":27,
						"path":"translation"
					}
				},
				{
					"sampler":97,
					"target":{
						"node":27,
						"path":"rotation"
					}
				},
				{
					"sampler":98,
					"target":{
						"node":27,
						"path":"scale"
					}
				}
			],
			"name":"Armature|mixamo.com|Layer0.001",
			"samplers":[
				{
					"input":108,
					"interpolation":"LINEAR",
					"output":109
				},
				{
					"input":108,
					"interpolation":"LINEAR",
					"output":110
				},
				{
					"input":111,
					"interpolation":"STEP",
					"output":112
				},
				{
					"input":111,
					"interpolation":"LINEAR",
					"output":113
				},
				{
					"input":108,
					"interpolation":"LINEAR",
					"output":114
				},
				{
					"input":111,
					"interpolation":"STEP",
					"output":115
				},
				{
					"input":111,
					"interpolation":"LINEAR",
					"output":116
				},
				{
					"input":108,
					"interpolation":"LINEAR",
					"output":117
				},
				{
					"input":111,
					"interpolation":"LINEAR",
					"output":118
				},
				{
					"input":111,
					"interpolation":"LINEAR",
					"output":119
				},
				{
					"input":108,
					"interpolation":"LINEAR",
					"output":120
				},
				{
					"input":111,
					"interpolation":"LINEAR",
					"output":121
				},
				{
					"input":111,
					"interpolation":"LINEAR",
					"output":122
				},
				{
					"input":108,
					"interpolation":"LINEAR",
					"output":123
				},
				{
					"input":111,
					"interpolation":"STEP",
					"output":124
				},
				{
					"input":111,
					"interpolation":"LINEAR",
					"output":125
				},
				{
					"input":108,
					"interpolation":"LINEAR",
					"output":126
				},
				{
					"input":111,
					"interpolation":"LINEAR",
					"output":127
				},
				{
					"input":111,
					"interpolation":"STEP",
					"output":128
				},
				{
					"input":111,
					"interpolation":"STEP",
					"output":129
				},
				{
					"input":111,
					"interpolation":"STEP",
					"output":130
				},
				{
					"input":111,
					"interpolation":"LINEAR",
					"output":131
				},
				{
					"input":108,
					"interpolation":"LINEAR",
					"output":132
				},
				{
					"input":111,
					"interpolation":"STEP",
					"output":133
				},
				{
					"input":111,
					"interpolation":"LINEAR",
					"output":134
				},
				{
					"input":108,
					"interpolation":"LINEAR",
					"output":135
				},
				{
					"input":111,
					"interpolation":"LINEAR",
					"output":136
				},
				{
					"input":111,
					"interpolation":"LINEAR",
					"output":137
				},
				{
					"input":108,
					"interpolation":"LINEAR",
					"output":138
				},
				{
					"input":111,
					"interpolation":"LINEAR",
					"output":139
				},
				{
					"input":111,
					"interpolation":"LINEAR",
					"output":140
				},
				{
					"input":108,
					"interpolation":"LINEAR",
					"output":141
				},
				{
					"input":111,
					"interpolation":"LINEAR",
					"output":142
				},
				{
					"input":111,
					"interpolation":"LINEAR",
					"output":143
				},
				{
					"input":111,
					"interpolation":"LINEAR",
					"output":144
				},
				{
					"input":111,
					"interpolation":"STEP",
					"output":145
				},
				{
					"input":111,
					"interpolation":"LINEAR",
					"output":146
				},
				{
					"input":111,
					"interpolation":"STEP",
					"output":147
				},
				{
					"input":111,
					"interpolation":"STEP",
					"output":148
				},
				{
					"input":111,
					"interpolation":"LINEAR",
					"output":149
				},
				{
					"input":111,
					"interpolation":"LINEAR",
					"output":150
				},
				{
					"input":111,
					"interpolation":"STEP",
					"output":151
				},
				{
					"input":111,
					"interpolation":"STEP",
					"output":152
				},
				{
					"input":111,
					"interpolation":"STEP",
					"output":153
				},
				{
					"input":111,
					"interpolation":"STEP",
					"output":154
				},
				{
					"input":111,
					"interpolation":"LINEAR",
					"output":155
				},
				{
					"input":108,
					"interpolation":"LINEAR",
					"output":156
				},
				{
					"input":111,
					"interpolation":"LINEAR",
					"output":157
				},
				{
					"input":111,
					"interpolation":"LINEAR",
					"output":158
				},
				{
					"input":108,
					"interpolation":"LINEAR",
					"output":159
				},
				{
					"input":111,
					"interpolation":"STEP",
					"output":160
				},
				{
					"input":111,
					"interpolation":"LINEAR",
					"output":161
				},
				{
					"input":108,
					"interpolation":"LINEAR",
					"output":162
				},
				{
					"input":111,
					"interpolation":"STEP",
					"output":163
				},
				{
					"input":111,
					"interpolation":"LINEAR",
					"output":164
				},
				{
					"input":108,
					"interpolation":"LINEAR",
					"output":165
				},
				{
					"input":111,
					"interpolation":"LINEAR",
					"output":166
				},
				{
					"input":111,
					"interpolation":"LINEAR",
					"output":167
				},
				{
					"input":111,
					"interpolation":"LINEAR",
					"output":168
				},
				{
					"input":111,
					"interpolation":"STEP",
					"output":169
				},
				{
					"input":111,
					"interpolation":"LINEAR",
					"output":170
				},
				{
					"input":111,
					"interpolation":"LINEAR",
					"output":171
				},
				{
					"input":111,
					"interpolation":"STEP",
					"output":172
				},
				{
					"input":111,
					"interpolation":"LINEAR",
					"output":173
				},
				{
					"input":111,
					"interpolation":"STEP",
					"output":174
				},
				{
					"input":111,
					"interpolation":"LINEAR",
					"output":175
				},
				{
					"input":111,
					"interpolation":"STEP",
					"output":176
				},
				{
					"input":111,
					"interpolation":"STEP",
					"output":177
				},
				{
					"input":111,
					"interpolation":"STEP",
					"output":178
				},
				{
					"input":111,
					"interpolation":"LINEAR",
					"output":179
				},
				{
					"input":108,
					"interpolation":"LINEAR",
					"output":180
				},
				{
					"input":111,
					"interpolation":"LINEAR",
					"output":181
				},
				{
					"input":111,
					"interpolation":"LINEAR",
					"output":182
				},
				{
					"input":108,
					"interpolation":"LINEAR",
					"output":183
				},
				{
					"input":111,
					"interpolation":"LINEAR",
					"output":184
				},
				{
					"input":111,
					"interpolation":"LINEAR",
					"output":185
				},
				{
					"input":108,
					"interpolation":"LINEAR",
					"output":186
				},
				{
					"input":111,
					"interpolation":"STEP",
					"output":187
				},
				{
					"input":111,
					"interpolation":"LINEAR",
					"output":188
				},
				{
					"input":108,
					"interpolation":"LINEAR",
					"output":189
				},
				{
					"input":111,
					"interpolation":"LINEAR",
					"output":190
				},
				{
					"input":111,
					"interpolation":"STEP",
					"output":191
				},
				{
					"input":111,
					"interpolation":"STEP",
					"output":192
				},
				{
					"input":111,
					"interpolation":"STEP",
					"output":193
				},
				{
					"input":111,
					"interpolation":"LINEAR",
					"output":194
				},
				{
					"input":108,
					"interpolation":"LINEAR",
					"output":195
				},
				{
					"input":111,
					"interpolation":"LINEAR",
					"output":196
				},
				{
					"input":111,
					"interpolation":"LINEAR",
					"output":197
				},
				{
					"input":108,
					"interpolation":"LINEAR",
					"output":198
				},
				{
					"input":111,
					"interpolation":"LINEAR",
					"output":199
				},
				{
					"input":111,
					"interpolation":"LINEAR",
					"output":200
				},
				{
					"input":108,
					"interpolation":"LINEAR",
					"output":201
				},
				{
					"input":111,
					"interpolation":"LINEAR",
					"output":202
				},
				{
					"input":111,
					"interpolation":"LINEAR",
					"output":203
				},
				{
					"input":108,
					"interpolation":"LINEAR",
					"output":204
				},
				{
					"input":111,
					"interpolation":"LINEAR",
					"output":205
				},
				{
					"input":111,
					"interpolation":"STEP",
					"output":206
				},
				{
					"input":111,
					"interpolation":"STEP",
					"output":207
				},
				{
					"input":111,
					"interpolation":"STEP",
					"output":208
				}
			]
		}
	],
	"meshes":[
		{
			"name":"tripo_node_1b624923-7277-40fe-9aa8-7eb2f7a760dfmesh.001",
			"primitives":[
				{
					"attributes":{
						"POSITION":0,
						"NORMAL":1,
						"TEXCOORD_0":2,
						"JOINTS_0":3,
						"WEIGHTS_0":4
					},
					"indices":5
				}
			]
		}
	],
	"skins":[
		{
			"inverseBindMatrices":6,
			"joints":[
				32,
				21,
				20,
				19,
				2,
				1,
				0,
				10,
				9,
				8,
				7,
				6,
				5,
				4,
				3,
				18,
				17,
				16,
				15,
				14,
				13,
				12,
				11,
				26,
				25,
				24,
				23,
				22,
				31,
				30,
				29,
				28,
				27
			],
			"name":"Armature"
		}
	],
	"accessors":[
		{
			"bufferView":0,
			"componentType":5126,
			"count":3542,
			"max":[
				0.004994964227080345,
				0.009760742075741291,
				0.0031651300378143787
			],
			"min":[
				-0.0049949646927416325,
				5.620829496288948e-11,
				-0.0031651307363063097
			],
			"type":"VEC3"
		},
		{
			"bufferView":1,
			"componentType":5126,
			"count":3542,
			"type":"VEC3"
		},
		{
			"bufferView":2,
			"componentType":5126,
			"count":3542,
			"type":"VEC2"
		},
		{
			"bufferView":3,
			"componentType":5121,
			"count":3542,
			"type":"VEC4"
		},
		{
			"bufferView":4,
			"componentType":5126,
			"count":3542,
			"type":"VEC4"
		},
		{
			"bufferView":5,
			"componentType":5123,
			"count":14958,
			"type":"SCALAR"
		},
		{
			"bufferView":6,
			"componentType":5126,
			"count":33,
			"type":"MAT4"
		},
		{
			"bufferView":7,
			"componentType":5126,
			"count":23,
			"max":[
				0.7666666666666667
			],
			"min":[
				0.03333333333333333
			],
			"type":"SCALAR"
		},
		{
			"bufferView":8,
			"componentType":5126,
			"count":23,
			"type":"VEC3"
		},
		{
			"bufferView":9,
			"componentType":5126,
			"count":23,
			"type":"VEC4"
		},
		{
			"bufferView":10,
			"componentType":5126,
			"count":2,
			"max":[
				0.7666666666666667
			],
			"min":[
				0.03333333333333333
			],
			"type":"SCALAR"
		},
		{
			"bufferView":11,
			"componentType":5126,
			"count":2,
			"type":"VEC3"
		},
		{
			"bufferView":12,
			"componentType":5126,
			"count":2,
			"type":"VEC3"
		},
		{
			"bufferView":13,
			"componentType":5126,
			"count":23,
			"type":"VEC4"
		},
		{
			"bufferView":14,
			"componentType":5126,
			"count":2,
			"type":"VEC3"
		},
		{
			"bufferView":15,
			"componentType":5126,
			"count":2,
			"type":"VEC3"
		},
		{
			"bufferView":16,
			"componentType":5126,
			"count":23,
			"type":"VEC4"
		},
		{
			"bufferView":17,
			"componentType":5126,
			"count":2,
			"type":"VEC3"
		},
		{
			"bufferView":18,
			"componentType":5126,
			"count":2,
			"type":"VEC3"
		},
		{
			"bufferView":19,
			"componentType":5126,
			"count":23,
			"type":"VEC4"
		},
		{
			"bufferView":20,
			"componentType":5126,
			"count":2,
			"type":"VEC3"
		},
		{
			"bufferView":21,
			"componentType":5126,
			"count":2,
			"type":"VEC3"
		},
		{
			"bufferView":22,
			"componentType":5126,
			"count":23,
			"type":"VEC4"
		},
		{
			"bufferView":23,
			"componentType":5126,
			"count":2,
			"type":"VEC3"
		},
		{
			"bufferView":24,
			"componentType":5126,
			"count":2,
			"type":"VEC3"
		},
		{
			"bufferView":25,
			"componentType":5126,
			"count":23,
			"type":"VEC4"
		},
		{
			"bufferView":26,
			"componentType":5126,
			"count":2,
			"type":"VEC3"
		},
		{
			"bufferView":27,
			"componentType":5126,
			"count":2,
			"type":"VEC3"
		},
		{
			"bufferView":28,
			"componentType":5126,
			"count":2,
			"type":"VEC4"
		},
		{
			"bufferView":29,
			"componentType":5126,
			"count":2,
			"type":"VEC3"
		},
		{
			"bufferView":30,
			"componentType":5126,
			"count":2,
			"type":"VEC3"
		},
		{
			"bufferView":31,
			"componentType":5126,
			"count":23,
			"type":"VEC4"
		},
		{
			"bufferView":32,
			"componentType":5126,
			"count":2,
			"type":"VEC3"
		},
		{
			"bufferView":33,
			"componentType":5126,
			"count":2,
			"type":"VEC3"
		},
		{
			"bufferView":34,
			"componentType":5126,
			"count":23,
			"type":"VEC4"
		},
		{
			"bufferView":35,
			"componentType":5126,
			"count":2,
			"type":"VEC3"
		},
		{
			"bufferView":36,
			"componentType":5126,
			"count":2,
			"type":"VEC3"
		},
		{
			"bufferView":37,
			"componentType":5126,
			"count":23,
			"type":"VEC4"
		},
		{
			"bufferView":38,
			"componentType":5126,
			"count":2,
			"type":"VEC3"
		},
		{
			"bufferView":39,
			"componentType":5126,
			"count":2,
			"type":"VEC3"
		},
		{
			"bufferView":40,
			"componentType":5126,
			"count":23,
			"type":"VEC4"
		},
		{
			"bufferView":41,
			"componentType":5126,
			"count":2,
			"type":"VEC3"
		},
		{
			"bufferView":42,
			"componentType":5126,
			"count":2,
			"type":"VEC3"
		},
		{
			"bufferView":43,
			"componentType":5126,
			"count":23,
			"type":"VEC4"
		},
		{
			"bufferView":44,
			"componentType":5126,
			"count":2,
			"type":"VEC3"
		},
		{
			"bufferView":45,
			"componentType":5126,
			"count":2,
			"type":"VEC3"
		},
		{
			"bufferView":46,
			"componentType":5126,
			"count":23,
			"type":"VEC4"
		},
		{
			"bufferView":47,
			"componentType":5126,
			"count":2,
			"type":"VEC3"
		},
		{
			"bufferView":48,
			"componentType":5126,
			"count":2,
			"type":"VEC3"
		},
		{
			"bufferView":49,
			"componentType":5126,
			"count":23,
			"type":"VEC4"
		},
		{
			"bufferView":50,
			"componentType":5126,
			"count":2,
			"type":"VEC3"
		},
		{
			"bufferView":51,
			"componentType":5126,
			"count":2,
			"type":"VEC3"
		},
		{
			"bufferView":52,
			"componentType":5126,
			"count":2,
			"type":"VEC4"
		},
		{
			"bufferView":53,
			"componentType":5126,
			"count":2,
			"type":"VEC3"
		},
		{
			"bufferView":54,
			"componentType":5126,
			"count":2,
			"type":"VEC3"
		},
		{
			"bufferView":55,
			"componentType":5126,
			"count":23,
			"type":"VEC4"
		},
		{
			"bufferView":56,
			"componentType":5126,
			"count":2,
			"type":"VEC3"
		},
		{
			"bufferView":57,
			"componentType":5126,
			"count":2,
			"type":"VEC3"
		},
		{
			"bufferView":58,
			"componentType":5126,
			"count":23,
			"type":"VEC4"
		},
		{
			"bufferView":59,
			"componentType":5126,
			"count":2,
			"type":"VEC3"
		},
		{
			"bufferView":60,
			"componentType":5126,
			"count":2,
			"type":"VEC3"
		},
		{
			"bufferView":61,
			"componentType":5126,
			"count":23,
			"type":"VEC4"
		},
		{
			"bufferView":62,
			"componentType":5126,
			"count":2,
			"type":"VEC3"
		},
		{
			"bufferView":63,
			"componentType":5126,
			"count":2,
			"type":"VEC3"
		},
		{
			"bufferView":64,
			"componentType":5126,
			"count":23,
			"type":"VEC4"
		},
		{
			"bufferView":65,
			"componentType":5126,
			"count":2,
			"type":"VEC3"
		},
		{
			"bufferView":66,
			"componentType":5126,
			"count":2,
			"type":"VEC3"
		},
		{
			"bufferView":67,
			"componentType":5126,
			"count":23,
			"type":"VEC4"
		},
		{
			"bufferView":68,
			"componentType":5126,
			"count":2,
			"type":"VEC3"
		},
		{
			"bufferView":69,
			"componentType":5126,
			"count":2,
			"type":"VEC3"
		},
		{
			"bufferView":70,
			"componentType":5126,
			"count":23,
			"type":"VEC4"
		},
		{
			"bufferView":71,
			"componentType":5126,
			"count":2,
			"type":"VEC3"
		},
		{
			"bufferView":72,
			"componentType":5126,
			"count":2,
			"type":"VEC3"
		},
		{
			"bufferView":73,
			"componentType":5126,
			"count":23,
			"type":"VEC4"
		},
		{
			"bufferView":74,
			"componentType":5126,
			"count":2,
			"type":"VEC3"
		},
		{
			"bufferView":75,
			"componentType":5126,
			"count":2,
			"type":"VEC3"
		},
		{
			"bufferView":76,
			"componentType":5126,
			"count":2,
			"type":"VEC4"
		},
		{
			"bufferView":77,
			"componentType":5126,
			"count":2,
			"type":"VEC3"
		},
		{
			"bufferView":78,
			"componentType":5126,
			"count":2,
			"type":"VEC3"
		},
		{
			"bufferView":79,
			"componentType":5126,
			"count":23,
			"type":"VEC4"
		},
		{
			"bufferView":80,
			"componentType":5126,
			"count":2,
			"type":"VEC3"
		},
		{
			"bufferView":81,
			"componentType":5126,
			"count":2,
			"type":"VEC3"
		},
		{
			"bufferView":82,
			"componentType":5126,
			"count":23,
			"type":"VEC4"
		},
		{
			"bufferView":83,
			"componentType":5126,
			"count":2,
			"type":"VEC3"
		},
		{
			"bufferView":84,
			"componentType":5126,
			"count":2,
			"type":"VEC3"
		},
		{
			"bufferView":85,
			"componentType":5126,
			"count":23,
			"type":"VEC4"
		},
		{
			"bufferView":86,
			"componentType":5126,
			"count":2,
			"type":"VEC3"
		},
		{
			"bufferView":87,
			"componentType":5126,
			"count":2,
			"type":"VEC3"
		},
		{
			"bufferView":88,
			"componentType":5126,
			"count":23,
			"type":"VEC4"
		},
		{
			"bufferView":89,
			"componentType":5126,
			"count":2,
			"type":"VEC3"
		},
		{
			"bufferView":90,
			"componentType":5126,
			"count":2,
			"type":"VEC3"
		},
		{
			"bufferView":91,
			"componentType":5126,
			"count":2,
			"type":"VEC4"
		},
		{
			"bufferView":92,
			"componentType":5126,
			"count":2,
			"type":"VEC3"
		},
		{
			"bufferView":93,
			"componentType":5126,
			"count":2,
			"type":"VEC3"
		},
		{
			"bufferView":94,
			"componentType":5126,
			"count":23,
			"type":"VEC4"
		},
		{
			"bufferView":95,
			"componentType":5126,
			"count":2,
			"type":"VEC3"
		},
		{
			"bufferView":96,
			"componentType":5126,
			"count":2,
			"type":"VEC3"
		},
		{
			"bufferView":97,
			"componentType":5126,
			"count":23,
			"type":"VEC4"
		},
		{
			"bufferView":98,
			"componentType":5126,
			"count":2,
			"type":"VEC3"
		},
		{
			"bufferView":99,
			"componentType":5126,
			"count":2,
			"type":"VEC3"
		},
		{
			"bufferView":100,
			"componentType":5126,
			"count":23,
			"type":"VEC4"
		},
		{
			"bufferView":101,
			"componentType":5126,
			"count":2,
			"type":"VEC3"
		},
		{
			"bufferView":102,
			"componentType":5126,
			"count":2,
			"type":"VEC3"
		},
		{
			"bufferView":103,
			"componentType":5126,
			"count":23,
			"type":"VEC4"
		},
		{
			"bufferView":104,
			"componentType":5126,
			"count":2,
			"type":"VEC3"
		},
		{
			"bufferView":105,
			"componentType":5126,
			"count":2,
			"type":"VEC3"
		},
		{
			"bufferView":106,
			"componentType":5126,
			"count":2,
			"type":"VEC4"
		},
		{
			"bufferView":107,
			"componentType":5126,
			"count":2,
			"type":"VEC3"
		},
		{
			"bufferView":108,
			"componentType":5126,
			"count":80,
			"max":[
				2.6666666666666665
			],
			"min":[
				0.03333333333333333
			],
			"type":"SCALAR"
		},
		{
			"bufferView":109,
			"componentType":5126,
			"count":80,
			"type":"VEC3"
		},
		{
			"bufferView":110,
			"componentType":5126,
			"count":80,
			"type":"VEC4"
		},
		{
			"bufferView":111,
			"componentType":5126,
			"count":2,
			"max":[
				2.6666666666666665
			],
			"min":[
				0.03333333333333333
			],
			"type":"SCALAR"
		},
		{
			"bufferView":112,
			"componentType":5126,
			"count":2,
			"type":"VEC3"
		},
		{
			"bufferView":113,
			"componentType":5126,
			"count":2,
			"type":"VEC3"
		},
		{
			"bufferView":114,
			"componentType":5126,
			"count":80,
			"type":"VEC4"
		},
		{
			"bufferView":115,
			"componentType":5126,
			"count":2,
			"type":"VEC3"
		},
		{
			"bufferView":116,
			"componentType":5126,
			"count":2,
			"type":"VEC3"
		},
		{
			"bufferView":117,
			"componentType":5126,
			"count":80,
			"type":"VEC4"
		},
		{
			"bufferView":118,
			"componentType":5126,
			"count":2,
			"type":"VEC3"
		},
		{
			"bufferView":119,
			"componentType":5126,
			"count":2,
			"type":"VEC3"
		},
		{
			"bufferView":120,
			"componentType":5126,
			"count":80,
			"type":"VEC4"
		},
		{
			"bufferView":121,
			"componentType":5126,
			"count":2,
			"type":"VEC3"
		},
		{
			"bufferView":122,
			"componentType":5126,
			"count":2,
			"type":"VEC3"
		},
		{
			"bufferView":123,
			"componentType":5126,
			"count":80,
			"type":"VEC4"
		},
		{
			"bufferView":124,
			"componentType":5126,
			"count":2,
			"type":"VEC3"
		},
		{
			"bufferView":125,
			"componentType":5126,
			"count":2,
			"type":"VEC3"
		},
		{
			"bufferView":126,
			"componentType":5126,
			"count":80,
			"type":"VEC4"
		},
		{
			"bufferView":127,
			"componentType":5126,
			"count":2,
			"type":"VEC3"
		},
		{
			"bufferView":128,
			"componentType":5126,
			"count":2,
			"type":"VEC3"
		},
		{
			"bufferView":129,
			"componentType":5126,
			"count":2,
			"type":"VEC4"
		},
		{
			"bufferView":130,
			"componentType":5126,
			"count":2,
			"type":"VEC3"
		},
		{
			"bufferView":131,
			"componentType":5126,
			"count":2,
			"type":"VEC3"
		},
		{
			"bufferView":132,
			"componentType":5126,
			"count":80,
			"type":"VEC4"
		},
		{
			"bufferView":133,
			"componentType":5126,
			"count":2,
			"type":"VEC3"
		},
		{
			"bufferView":134,
			"componentType":5126,
			"count":2,
			"type":"VEC3"
		},
		{
			"bufferView":135,
			"componentType":5126,
			"count":80,
			"type":"VEC4"
		},
		{
			"bufferView":136,
			"componentType":5126,
			"count":2,
			"type":"VEC3"
		},
		{
			"bufferView":137,
			"componentType":5126,
			"count":2,
			"type":"VEC3"
		},
		{
			"bufferView":138,
			"componentType":5126,
			"count":80,
			"type":"VEC4"
		},
		{
			"bufferView":139,
			"componentType":5126,
			"count":2,
			"type":"VEC3"
		},
		{
			"bufferView":140,
			"componentType":5126,
			"count":2,
			"type":"VEC3"
		},
		{
			"bufferView":141,
			"componentType":5126,
			"count":80,
			"type":"VEC4"
		},
		{
			"bufferView":142,
			"componentType":5126,
			"count":2,
			"type":"VEC3"
		},
		{
			"bufferView":143,
			"componentType":5126,
			"count":2,
			"type":"VEC3"
		},
		{
			"bufferView":144,
			"componentType":5126,
			"count":2,
			"type":"VEC4"
		},
		{
			"bufferView":145,
			"componentType":5126,
			"count":2,
			"type":"VEC3"
		},
		{
			"bufferView":146,
			"componentType":5126,
			"count":2,
			"type":"VEC3"
		},
		{
			"bufferView":147,
			"componentType":5126,
			"count":2,
			"type":"VEC4"
		},
		{
			"bufferView":148,
			"componentType":5126,
			"count":2,
			"type":"VEC3"
		},
		{
			"bufferView":149,
			"componentType":5126,
			"count":2,
			"type":"VEC3"
		},
		{
			"bufferView":150,
			"componentType":5126,
			"count":2,
			"type":"VEC4"
		},
		{
			"bufferView":151,
			"componentType":5126,
			"count":2,
			"type":"VEC3"
		},
		{
			"bufferView":152,
			"componentType":5126,
			"count":2,
			"type":"VEC3"
		},
		{
			"bufferView":153,
			"componentType":5126,
			"count":2,
			"type":"VEC4"
		},
		{
			"bufferView":154,
			"componentType":5126,
			"count":2,
			"type":"VEC3"
		},
		{
			"bufferView":155,
			"componentType":5126,
			"count":2,
			"type":"VEC3"
		},
		{
			"bufferView":156,
			"componentType":5126,
			"count":80,
			"type":"VEC4"
		},
		{
			"bufferView":157,
			"componentType":5126,
			"count":2,
			"type":"VEC3"
		},
		{
			"bufferView":158,
			"componentType":5126,
			"count":2,
			"type":"VEC3"
		},
		{
			"bufferView":159,
			"componentType":5126,
			"count":80,
			"type":"VEC4"
		},
		{
			"bufferView":160,
			"componentType":5126,
			"count":2,
			"type":"VEC3"
		},
		{
			"bufferView":161,
			"componentType":5126,
			"count":2,
			"type":"VEC3"
		},
		{
			"bufferView":162,
			"componentType":5126,
			"count":80,
			"type":"VEC4"
		},
		{
			"bufferView":163,
			"componentType":5126,
			"count":2,
			"type":"VEC3"
		},
		{
			"bufferView":164,
			"componentType":5126,
			"count":2,
			"type":"VEC3"
		},
		{
			"bufferView":165,
			"componentType":5126,
			"count":80,
			"type":"VEC4"
		},
		{
			"bufferView":166,
			"componentType":5126,
			"count":2,
			"type":"VEC3"
		},
		{
			"bufferView":167,
			"componentType":5126,
			"count":2,
			"type":"VEC3"
		},
		{
			"bufferView":168,
			"componentType":5126,
			"count":2,
			"type":"VEC4"
		},
		{
			"bufferView":169,
			"componentType":5126,
			"count":2,
			"type":"VEC3"
		},
		{
			"bufferView":170,
			"componentType":5126,
			"count":2,
			"type":"VEC3"
		},
		{
			"bufferView":171,
			"componentType":5126,
			"count":2,
			"type":"VEC4"
		},
		{
			"bufferView":172,
			"componentType":5126,
			"count":2,
			"type":"VEC3"
		},
		{
			"bufferView":173,
			"componentType":5126,
			"count":2,
			"type":"VEC3"
		},
		{
			"bufferView":174,
			"componentType":5126,
			"count":2,
			"type":"VEC4"
		},
		{
			"bufferView":175,
			"componentType":5126,
			"count":2,
			"type":"VEC3"
		},
		{
			"bufferView":176,
			"componentType":5126,
			"count":2,
			"type":"VEC3"
		},
		{
			"bufferView":177,
			"componentType":5126,
			"count":2,
			"type":"VEC4"
		},
		{
			"bufferView":178,
			"componentType":5126,
			"count":2,
			"type":"VEC3"
		},
		{
			"bufferView":179,
			"componentType":5126,
			"count":2,
			"type":"VEC3"
		},
		{
			"bufferView":180,
			"componentType":5126,
			"count":80,
			"type":"VEC4"
		},
		{
			"bufferView":181,
			"componentType":5126,
			"count":2,
			"type":"VEC3"
		},
		{
			"bufferView":182,
			"componentType":5126,
			"count":2,
			"type":"VEC3"
		},
		{
			"bufferView":183,
			"componentType":5126,
			"count":80,
			"type":"VEC4"
		},
		{
			"bufferView":184,
			"componentType":5126,
			"count":2,
			"type":"VEC3"
		},
		{
			"bufferView":185,
			"componentType":5126,
			"count":2,
			"type":"VEC3"
		},
		{
			"bufferView":186,
			"componentType":5126,
			"count":80,
			"type":"VEC4"
		},
		{
			"bufferView":187,
			"componentType":5126,
			"count":2,
			"type":"VEC3"
		},
		{
			"bufferView":188,
			"componentType":5126,
			"count":2,
			"type":"VEC3"
		},
		{
			"bufferView":189,
			"componentType":5126,
			"count":80,
			"type":"VEC4"
		},
		{
			"bufferView":190,
			"componentType":5126,
			"count":2,
			"type":"VEC3"
		},
		{
			"bufferView":191,
			"componentType":5126,
			"count":2,
			"type":"VEC3"
		},
		{
			"bufferView":192,
			"componentType":5126,
			"count":2,
			"type":"VEC4"
		},
		{
			"bufferView":193,
			"componentType":5126,
			"count":2,
			"type":"VEC3"
		},
		{
			"bufferView":194,
			"componentType":5126,
			"count":2,
			"type":"VEC3"
		},
		{
			"bufferView":195,
			"componentType":5126,
			"count":80,
			"type":"VEC4"
		},
		{
			"bufferView":196,
			"componentType":5126,
			"count":2,
			"type":"VEC3"
		},
		{
			"bufferView":197,
			"componentType":5126,
			"count":2,
			"type":"VEC3"
		},
		{
			"bufferView":198,
			"componentType":5126,
			"count":80,
			"type":"VEC4"
		},
		{
			"bufferView":199,
			"componentType":5126,
			"count":2,
			"type":"VEC3"
		},
		{
			"bufferView":200,
			"componentType":5126,
			"count":2,
			"type":"VEC3"
		},
		{
			"bufferView":201,
			"componentType":5126,
			"count":80,
			"type":"VEC4"
		},
		{
			"bufferView":202,
			"componentType":5126,
			"count":2,
			"type":"VEC3"
		},
		{
			"bufferView":203,
			"componentType":5126,
			"count":2,
			"type":"VEC3"
		},
		{
			"bufferView":204,
			"componentType":5126,
			"count":80,
			"type":"VEC4"
		},
		{
			"bufferView":205,
			"componentType":5126,
			"count":2,
			"type":"VEC3"
		},
		{
			"bufferView":206,
			"componentType":5126,
			"count":2,
			"type":"VEC3"
		},
		{
			"bufferView":207,
			"componentType":5126,
			"count":2,
			"type":"VEC4"
		},
		{
			"bufferView":208,
			"componentType":5126,
			"count":2,
			"type":"VEC3"
		}
	],
	"bufferViews":[
		{
			"buffer":0,
			"byteLength":42504,
			"byteOffset":0,
			"target":34962
		},
		{
			"buffer":0,
			"byteLength":42504,
			"byteOffset":42504,
			"target":34962
		},
		{
			"buffer":0,
			"byteLength":28336,
			"byteOffset":85008,
			"target":34962
		},
		{
			"buffer":0,
			"byteLength":14168,
			"byteOffset":113344,
			"target":34962
		},
		{
			"buffer":0,
			"byteLength":56672,
			"byteOffset":127512,
			"target":34962
		},
		{
			"buffer":0,
			"byteLength":29916,
			"byteOffset":184184,
			"target":34963
		},
		{
			"buffer":0,
			"byteLength":2112,
			"byteOffset":214100
		},
		{
			"buffer":0,
			"byteLength":92,
			"byteOffset":216212
		},
		{
			"buffer":0,
			"byteLength":276,
			"byteOffset":216304
		},
		{
			"buffer":0,
			"byteLength":368,
			"byteOffset":216580
		},
		{
			"buffer":0,
			"byteLength":8,
			"byteOffset":216948
		},
		{
			"buffer":0,
			"byteLength":24,
			"byteOffset":216956
		},
		{
			"buffer":0,
			"byteLength":24,
			"byteOffset":216980
		},
		{
			"buffer":0,
			"byteLength":368,
			"byteOffset":217004
		},
		{
			"buffer":0,
			"byteLength":24,
			"byteOffset":217372
		},
		{
			"buffer":0,
			"byteLength":24,
			"byteOffset":217396
		},
		{
			"buffer":0,
			"byteLength":368,
			"byteOffset":217420
		},
		{
			"buffer":0,
			"byteLength":24,
			"byteOffset":217788
		},
		{
			"buffer":0,
			"byteLength":24,
			"byteOffset":217812
		},
		{
			"buffer":0,
			"byteLength":368,
			"byteOffset":217836
		},
		{
			"buffer":0,
			"byteLength":24,
			"byteOffset":218204
		},
		{
			"buffer":0,
			"byteLength":24,
			"byteOffset":218228
		},
		{
			"buffer":0,
			"byteLength":368,
			"byteOffset":218252
		},
		{
			"buffer":0,
			"byteLength":24,
			"byteOffset":218620
		},
		{
			"buffer":0,
			"byteLength":24,
			"byteOffset":218644
		},
		{
			"buffer":0,
			"byteLength":368,
			"byteOffset":218668
		},
		{
			"buffer":0,
			"byteLength":24,
			"byteOffset":219036
		},
		{
			"buffer":0,
			"byteLength":24,
			"byteOffset":219060
		},
		{
			"buffer":0,
			"byteLength":32,
			"byteOffset":219084
		},
		{
			"buffer":0,
			"byteLength":24,
			"byteOffset":219116
		},
		{
			"buffer":0,
			"byteLength":24,
			"byteOffset":219140
		},
		{
			"buffer":0,
			"byteLength":368,
			"byteOffset":219164
		},
		{
			"buffer":0,
			"byteLength":24,
			"byteOffset":219532
		},
		{
			"buffer":0,
			"byteLength":24,
			"byteOffset":219556
		},
		{
			"buffer":0,
			"byteLength":368,
			"byteOffset":219580
		},
		{
			"buffer":0,
			"byteLength":24,
			"byteOffset":219948
		},
		{
			"buffer":0,
			"byteLength":24,
			"byteOffset":219972
		},
		{
			"buffer":0,
			"byteLength":368,
			"byteOffset":219996
		},
		{
			"buffer":0,
			"byteLength":24,
			"byteOffset":220364
		},
		{
			"buffer":0,
			"byteLength":24,
			"byteOffset":220388
		},
		{
			"buffer":0,
			"byteLength":368,
			"byteOffset":220412
		},
		{
			"buffer":0,
			"byteLength":24,
			"byteOffset":220780
		},
		{
			"buffer":0,
			"byteLength":24,
			"byteOffset":220804
		},
		{
			"buffer":0,
			"byteLength":368,
			"byteOffset":220828
		},
		{
			"buffer":0,
			"byteLength":24,
			"byteOffset":221196
		},
		{
			"buffer":0,
			"byteLength":24,
			"byteOffset":221220
		},
		{
			"buffer":0,
			"byteLength":368,
			"byteOffset":221244
		},
		{
			"buffer":0,
			"byteLength":24,
			"byteOffset":221612
		},
		{
			"buffer":0,
			"byteLength":24,
			"byteOffset":221636
		},
		{
			"buffer":0,
			"byteLength":368,
			"byteOffset":221660
		},
		{
			"buffer":0,
			"byteLength":24,
			"byteOffset":222028
		},
		{
			"buffer":0,
			"byteLength":24,
			"byteOffset":222052
		},
		{
			"buffer":0,
			"byteLength":32,
			"byteOffset":222076
		},
		{
			"buffer":0,
			"byteLength":24,
			"byteOffset":222108
		},
		{
			"buffer":0,
			"byteLength":24,
			"byteOffset":222132
		},
		{
			"buffer":0,
			"byteLength":368,
			"byteOffset":222156
		},
		{
			"buffer":0,
			"byteLength":24,
			"byteOffset":222524
		},
		{
			"buffer":0,
			"byteLength":24,
			"byteOffset":222548
		},
		{
			"buffer":0,
			"byteLength":368,
			"byteOffset":222572
		},
		{
			"buffer":0,
			"byteLength":24,
			"byteOffset":222940
		},
		{
			"buffer":0,
			"byteLength":24,
			"byteOffset":222964
		},
		{
			"buffer":0,
			"byteLength":368,
			"byteOffset":222988
		},
		{
			"buffer":0,
			"byteLength":24,
			"byteOffset":223356
		},
		{
			"buffer":0,
			"byteLength":24,
			"byteOffset":223380
		},
		{
			"buffer":0,
			"byteLength":368,
			"byteOffset":223404
		},
		{
			"buffer":0,
			"byteLength":24,
			"byteOffset":223772
		},
		{
			"buffer":0,
			"byteLength":24,
			"byteOffset":223796
		},
		{
			"buffer":0,
			"byteLength":368,
			"byteOffset":223820
		},
		{
			"buffer":0,
			"byteLength":24,
			"byteOffset":224188
		},
		{
			"buffer":0,
			"byteLength":24,
			"byteOffset":224212
		},
		{
			"buffer":0,
			"byteLength":368,
			"byteOffset":224236
		},
		{
			"buffer":0,
			"byteLength":24,
			"byteOffset":224604
		},
		{
			"buffer":0,
			"byteLength":24,
			"byteOffset":224628
		},
		{
			"buffer":0,
			"byteLength":368,
			"byteOffset":224652
		},
		{
			"buffer":0,
			"byteLength":24,
			"byteOffset":225020
		},
		{
			"buffer":0,
			"byteLength":24,
			"byteOffset":225044
		},
		{
			"buffer":0,
			"byteLength":32,
			"byteOffset":225068
		},
		{
			"buffer":0,
			"byteLength":24,
			"byteOffset":225100
		},
		{
			"buffer":0,
			"byteLength":24,
			"byteOffset":225124
		},
		{
			"buffer":0,
			"byteLength":368,
			"byteOffset":225148
		},
		{
			"buffer":0,
			"byteLength":24,
			"byteOffset":225516
		},
		{
			"buffer":0,
			"byteLength":24,
			"byteOffset":225540
		},
		{
			"buffer":0,
			"byteLength":368,
			"byteOffset":225564
		},
		{
			"buffer":0,
			"byteLength":24,
			"byteOffset":225932
		},
		{
			"buffer":0,
			"byteLength":24,
			"byteOffset":225956
		},
		{
			"buffer":0,
			"byteLength":368,
			"byteOffset":225980
		},
		{
			"buffer":0,
			"byteLength":24,
			"byteOffset":226348
		},
		{
			"buffer":0,
			"byteLength":24,
			"byteOffset":226372
		},
		{
			"buffer":0,
			"byteLength":368,
			"byteOffset":226396
		},
		{
			"buffer":0,
			"byteLength":24,
			"byteOffset":226764
		},
		{
			"buffer":0,
			"byteLength":24,
			"byteOffset":226788
		},
		{
			"buffer":0,
			"byteLength":32,
			"byteOffset":226812
		},
		{
			"buffer":0,
			"byteLength":24,
			"byteOffset":226844
		},
		{
			"buffer":0,
			"byteLength":24,
			"byteOffset":226868
		},
		{
			"buffer":0,
			"byteLength":368,
			"byteOffset":226892
		},
		{
			"buffer":0,
			"byteLength":24,
			"byteOffset":227260
		},
		{
			"buffer":0,
			"byteLength":24,
			"byteOffset":227284
		},
		{
			"buffer":0,
			"byteLength":368,
			"byteOffset":227308
		},
		{
			"buffer":0,
			"byteLength":24,
			"byteOffset":227676
		},
		{
			"buffer":0,
			"byteLength":24,
			"byteOffset":227700
		},
		{
			"buffer":0,
			"byteLength":368,
			"byteOffset":227724
		},
		{
			"buffer":0,
			"byteLength":24,
			"byteOffset":228092
		},
		{
			"buffer":0,
			"byteLength":24,
			"byteOffset":228116
		},
		{
			"buffer":0,
			"byteLength":368,
			"byteOffset":228140
		},
		{
			"buffer":0,
			"byteLength":24,
			"byteOffset":228508
		},
		{
			"buffer":0,
			"byteLength":24,
			"byteOffset":228532
		},
		{
			"buffer":0,
			"byteLength":32,
			"byteOffset":228556
		},
		{
			"buffer":0,
			"byteLength":24,
			"byteOffset":228588
		},
		{
			"buffer":0,
			"byteLength":320,
			"byteOffset":228612
		},
		{
			"buffer":0,
			"byteLength":960,
			"byteOffset":228932
		},
		{
			"buffer":0,
			"byteLength":1280,
			"byteOffset":229892
		},
		{
			"buffer":0,
			"byteLength":8,
			"byteOffset":231172
		},
		{
			"buffer":0,
			"byteLength":24,
			"byteOffset":231180
		},
		{
			"buffer":0,
			"byteLength":24,
			"byteOffset":231204
		},
		{
			"buffer":0,
			"byteLength":1280,
			"byteOffset":231228
		},
		{
			"buffer":0,
			"byteLength":24,
			"byteOffset":232508
		},
		{
			"buffer":0,
			"byteLength":24,
			"byteOffset":232532
		},
		{
			"buffer":0,
			"byteLength":1280,
			"byteOffset":232556
		},
		{
			"buffer":0,
			"byteLength":24,
			"byteOffset":233836
		},
		{
			"buffer":0,
			"byteLength":24,
			"byteOffset":233860
		},
		{
			"buffer":0,
			"byteLength":1280,
			"byteOffset":233884
		},
		{
			"buffer":0,
			"byteLength":24,
			"byteOffset":235164
		},
		{
			"buffer":0,
			"byteLength":24,
			"byteOffset":235188
		},
		{
			"buffer":0,
			"byteLength":1280,
			"byteOffset":235212
		},
		{
			"buffer":0,
			"byteLength":24,
			"byteOffset":236492
		},
		{
			"buffer":0,
			"byteLength":24,
			"byteOffset":236516
		},
		{
			"buffer":0,
			"byteLength":1280,
			"byteOffset":236540
		},
		{
			"buffer":0,
			"byteLength":24,
			"byteOffset":237820
		},
		{
			"buffer":0,
			"byteLength":24,
			"byteOffset":237844
		},
		{
			"buffer":0,
			"byteLength":32,
			"byteOffset":237868
		},
		{
			"buffer":0,
			"byteLength":24,
			"byteOffset":237900
		},
		{
			"buffer":0,
			"byteLength":24,
			"byteOffset":237924
		},
		{
			"buffer":0,
			"byteLength":1280,
			"byteOffset":237948
		},
		{
			"buffer":0,
			"byteLength":24,
			"byteOffset":239228
		},
		{
			"buffer":0,
			"byteLength":24,
			"byteOffset":239252
		},
		{
			"buffer":0,
			"byteLength":1280,
			"byteOffset":239276
		},
		{
			"buffer":0,
			"byteLength":24,
			"byteOffset":240556
		},
		{
			"buffer":0,
			"byteLength":24,
			"byteOffset":240580
		},
		{
			"buffer":0,
			"byteLength":1280,
			"byteOffset":240604
		},
		{
			"buffer":0,
			"byteLength":24,
			"byteOffset":241884
		},
		{
			"buffer":0,
			"byteLength":24,
			"byteOffset":241908
		},
		{
			"buffer":0,
			"byteLength":1280,
			"byteOffset":241932
		},
		{
			"buffer":0,
			"byteLength":24,
			"byteOffset":243212
		},
		{
			"buffer":0,
			"byteLength":24,
			"byteOffset":243236
		},
		{
			"buffer":0,
			"byteLength":32,
			"byteOffset":243260
		},
		{
			"buffer":0,
			"byteLength":24,
			"byteOffset":243292
		},
		{
			"buffer":0,
			"byteLength":24,
			"byteOffset":243316
		},
		{
			"buffer":0,
			"byteLength":32,
			"byteOffset":243340
		},
		{
			"buffer":0,
			"byteLength":24,
			"byteOffset":243372
		},
		{
			"buffer":0,
			"byteLength":24,
			"byteOffset":243396
		},
		{
			"buffer":0,
			"byteLength":32,
			"byteOffset":243420
		},
		{
			"buffer":0,
			"byteLength":24,
			"byteOffset":243452
		},
		{
			"buffer":0,
			"byteLength":24,
			"byteOffset":243476
		},
		{
			"buffer":0,
			"byteLength":32,
			"byteOffset":243500
		},
		{
			"buffer":0,
			"byteLength":24,
			"byteOffset":243532
		},
		{
			"buffer":0,
			"byteLength":24,
			"byteOffset":243556
		},
		{
			"buffer":0,
			"byteLength":1280,
			"byteOffset":243580
		},
		{
			"buffer":0,
			"byteLength":24,
			"byteOffset":244860
		},
		{
			"buffer":0,
			"byteLength":24,
			"byteOffset":244884
		},
		{
			"buffer":0,
			"byteLength":1280,
			"byteOffset":244908
		},
		{
			"buffer":0,
			"byteLength":24,
			"byteOffset":246188
		},
		{
			"buffer":0,
			"byteLength":24,
			"byteOffset":246212
		},
		{
			"buffer":0,
			"byteLength":1280,
			"byteOffset":246236
		},
		{
			"buffer":0,
			"byteLength":24,
			"byteOffset":247516
		},
		{
			"buffer":0,
			"byteLength":24,
			"byteOffset":247540
		},
		{
			"buffer":0,
			"byteLength":1280,
			"byteOffset":247564
		},
		{
			"buffer":0,
			"byteLength":24,
			"byteOffset":248844
		},
		{
			"buffer":0,
			"byteLength":24,
			"byteOffset":248868
		},
		{
			"buffer":0,
			"byteLength":32,
			"byteOffset":248892
		},
		{
			"buffer":0,
			"byteLength":24,
			"byteOffset":248924
		},
		{
			"buffer":0,
			"byteLength":24,
			"byteOffset":248948
		},
		{
			"buffer":0,
			"byteLength":32,
			"byteOffset":248972
		},
		{
			"buffer":0,
			"byteLength":24,
			"byteOffset":249004
		},
		{
			"buffer":0,
			"byteLength":24,
			"byteOffset":249028
		},
		{
			"buffer":0,
			"byteLength":32,
			"byteOffset":249052
		},
		{
			"buffer":0,
			"byteLength":24,
			"byteOffset":249084
		},
		{
			"buffer":0,
			"byteLength":24,
			"byteOffset":249108
		},
		{
			"buffer":0,
			"byteLength":32,
			"byteOffset":249132
		},
		{
			"buffer":0,
			"byteLength":24,
			"byteOffset":249164
		},
		{
			"buffer":0,
			"byteLength":24,
			"byteOffset":249188
		},
		{
			"buffer":0,
			"byteLength":1280,
			"byteOffset":249212
		},
		{
			"buffer":0,
			"byteLength":24,
			"byteOffset":250492
		},
		{
			"buffer":0,
			"byteLength":24,
			"byteOffset":250516
		},
		{
			"buffer":0,
			"byteLength":1280,
			"byteOffset":250540
		},
		{
			"buffer":0,
			"byteLength":24,
			"byteOffset":251820
		},
		{
			"buffer":0,
			"byteLength":24,
			"byteOffset":251844
		},
		{
			"buffer":0,
			"byteLength":1280,
			"byteOffset":251868
		},
		{
			"buffer":0,
			"byteLength":24,
			"byteOffset":253148
		},
		{
			"buffer":0,
			"byteLength":24,
			"byteOffset":253172
		},
		{
			"buffer":0,
			"byteLength":1280,
			"byteOffset":253196
		},
		{
			"buffer":0,
			"byteLength":24,
			"byteOffset":254476
		},
		{
			"buffer":0,
			"byteLength":24,
			"byteOffset":254500
		},
		{
			"buffer":0,
			"byteLength":32,
			"byteOffset":254524
		},
		{
			"buffer":0,
			"byteLength":24,
			"byteOffset":254556
		},
		{
			"buffer":0,
			"byteLength":24,
			"byteOffset":254580
		},
		{
			"buffer":0,
			"byteLength":1280,
			"byteOffset":254604
		},
		{
			"buffer":0,
			"byteLength":24,
			"byteOffset":255884
		},
		{
			"buffer":0,
			"byteLength":24,
			"byteOffset":255908
		},
		{
			"buffer":0,
			"byteLength":1280,
			"byteOffset":255932
		},
		{
			"buffer":0,
			"byteLength":24,
			"byteOffset":257212
		},
		{
			"buffer":0,
			"byteLength":24,
			"byteOffset":257236
		},
		{
			"buffer":0,
			"byteLength":1280,
			"byteOffset":257260
		},
		{
			"buffer":0,
			"byteLength":24,
			"byteOffset":258540
		},
		{
			"buffer":0,
			"byteLength":24,
			"byteOffset":258564
		},
		{
			"buffer":0,
			"byteLength":1280,
			"byteOffset":258588
		},
		{
			"buffer":0,
			"byteLength":24,
			"byteOffset":259868
		},
		{
			"buffer":0,
			"byteLength":24,
			"byteOffset":259892
		},
		{
			"buffer":0,
			"byteLength":32,
			"byteOffset":259916
		},
		{
			"buffer":0,
			"byteLength":24,
			"byteOffset":259948
		}
	],
	"buffers":[
		{
			"byteLength":259972,
			"uri":"SlidePenguin.bin"
		}
	]
}
